<?xml version="1.0" encoding="UTF-8" standalone="no"?>
<svg
   xmlns:dc="http://purl.org/dc/elements/1.1/"
   xmlns:cc="http://creativecommons.org/ns#"
   xmlns:rdf="http://www.w3.org/1999/02/22-rdf-syntax-ns#"
   xmlns:svg="http://www.w3.org/2000/svg"
   xmlns="http://www.w3.org/2000/svg"
   id="svg935"
   version="1.1"
   viewBox="0 0 249.76666 41.275002"
   height="156"
   width="944">
  <defs
     id="defs929">
    <clipPath
       id="clipPath18"
       clipPathUnits="userSpaceOnUse">
      <path
         id="path16"
         d="M 0,0 H 612 V 792 H 0 Z" />
    </clipPath>
    <clipPath
       id="clipPath166"
       clipPathUnits="userSpaceOnUse">
      <path
         id="path164"
         d="M 0,0 H 612 V 792 H 0 Z" />
    </clipPath>
  </defs>
  <metadata
     id="metadata932">
    <rdf:RDF>
      <cc:Work
         rdf:about="">
        <dc:format>image/svg+xml</dc:format>
        <dc:type
           rdf:resource="http://purl.org/dc/dcmitype/StillImage" />
        <dc:title></dc:title>
      </cc:Work>
    </rdf:RDF>
  </metadata>
  <g
     transform="translate(0,-255.72497)"
     id="layer1">
    <g
       transform="matrix(0.11379719,0,0,-0.11379719,90.813763,330.02256)"
       id="g1132"
       style="fill:#ffffff;fill-opacity:1;stroke:#ffffff;stroke-opacity:1">
      <g
         id="g12"
         transform="translate(-8.9706375e-6,-8.4214149e-6)"
         style="fill:#ffffff;fill-opacity:1;stroke:#ffffff;stroke-opacity:1">
        <g
           id="g14"
           clip-path="url(#clipPath18)"
           style="fill:#ffffff;fill-opacity:1;stroke:#ffffff;stroke-opacity:1">
          <g
             id="g20"
             transform="translate(305.3212,521.3801)"
             style="fill:#ffffff;fill-opacity:1;stroke:#ffffff;stroke-opacity:1">
            <path
               d="M 0,0 C 0.699,-0.188 1.113,-0.909 0.926,-1.611 0.739,-2.312 0.021,-2.729 -0.678,-2.541 -1.377,-2.353 -1.792,-1.631 -1.604,-0.93 -1.418,-0.229 -0.699,0.188 0,0"
               style="fill:#ffffff;fill-opacity:1;fill-rule:nonzero;stroke:#ffffff;stroke-opacity:1"
               id="path22" />
          </g>
          <g
             id="g24"
             transform="translate(305.3212,521.3801)"
             style="fill:#ffffff;fill-opacity:1;stroke:#ffffff;stroke-opacity:1">
            <path
               d="M 0,0 C 0.699,-0.188 1.113,-0.909 0.926,-1.611 0.739,-2.312 0.021,-2.729 -0.678,-2.541 -1.377,-2.353 -1.792,-1.631 -1.604,-0.93 -1.418,-0.229 -0.699,0.188 0,0 Z"
               style="fill:#ffffff;fill-opacity:1;stroke:#ffffff;stroke-width:0.72500002;stroke-linecap:butt;stroke-linejoin:miter;stroke-miterlimit:2.41400003;stroke-dasharray:none;stroke-opacity:1"
               id="path26" />
          </g>
          <g
             id="g28"
             transform="translate(318.8638,515.7538)"
             style="fill:#ffffff;fill-opacity:1;stroke:#ffffff;stroke-opacity:1">
            <path
               d="M 0,0 C 0.626,-0.363 0.841,-1.168 0.479,-1.796 0.117,-2.426 -0.684,-2.641 -1.311,-2.278 -1.937,-1.915 -2.152,-1.11 -1.79,-0.481 -1.428,0.147 -0.627,0.363 0,0"
               style="fill:#ffffff;fill-opacity:1;fill-rule:nonzero;stroke:#ffffff;stroke-opacity:1"
               id="path30" />
          </g>
          <g
             id="g32"
             transform="translate(318.8638,515.7538)"
             style="fill:#ffffff;fill-opacity:1;stroke:#ffffff;stroke-opacity:1">
            <path
               d="M 0,0 C 0.626,-0.363 0.841,-1.168 0.479,-1.796 0.117,-2.426 -0.684,-2.641 -1.311,-2.278 -1.937,-1.915 -2.152,-1.11 -1.79,-0.481 -1.428,0.147 -0.627,0.363 0,0 Z"
               style="fill:#ffffff;fill-opacity:1;stroke:#ffffff;stroke-width:0.72500002;stroke-linecap:butt;stroke-linejoin:miter;stroke-miterlimit:2.41400003;stroke-dasharray:none;stroke-opacity:1"
               id="path34" />
          </g>
          <g
             id="g36"
             transform="translate(339.4151,495.1393)"
             style="fill:#ffffff;fill-opacity:1;stroke:#ffffff;stroke-opacity:1">
            <path
               d="M 0,0 C 0.362,-0.629 0.147,-1.433 -0.479,-1.797 -1.106,-2.16 -1.906,-1.944 -2.268,-1.315 -2.631,-0.686 -2.416,0.118 -1.789,0.481 -1.163,0.844 -0.361,0.629 0,0"
               style="fill:#ffffff;fill-opacity:1;fill-rule:nonzero;stroke:#ffffff;stroke-opacity:1"
               id="path38" />
          </g>
          <g
             id="g40"
             transform="translate(339.4151,495.1393)"
             style="fill:#ffffff;fill-opacity:1;stroke:#ffffff;stroke-opacity:1">
            <path
               d="M 0,0 C 0.362,-0.629 0.147,-1.433 -0.479,-1.797 -1.106,-2.16 -1.906,-1.944 -2.268,-1.315 -2.631,-0.686 -2.416,0.118 -1.789,0.481 -1.163,0.844 -0.361,0.629 0,0 Z"
               style="fill:#ffffff;fill-opacity:1;stroke:#ffffff;stroke-width:0.72500002;stroke-linecap:butt;stroke-linejoin:miter;stroke-miterlimit:2.41400003;stroke-dasharray:none;stroke-opacity:1"
               id="path42" />
          </g>
          <g
             id="g44"
             transform="translate(345.025,481.556)"
             style="fill:#ffffff;fill-opacity:1;stroke:#ffffff;stroke-opacity:1">
            <path
               d="m 0,0 c 0.187,-0.702 -0.228,-1.422 -0.927,-1.611 -0.698,-0.188 -1.417,0.229 -1.604,0.93 -0.187,0.702 0.227,1.423 0.927,1.611 C -0.906,1.118 -0.187,0.702 0,0"
               style="fill:#ffffff;fill-opacity:1;fill-rule:nonzero;stroke:#ffffff;stroke-opacity:1"
               id="path46" />
          </g>
          <g
             id="g48"
             transform="translate(345.025,481.556)"
             style="fill:#ffffff;fill-opacity:1;stroke:#ffffff;stroke-opacity:1">
            <path
               d="m 0,0 c 0.187,-0.702 -0.228,-1.422 -0.927,-1.611 -0.698,-0.188 -1.417,0.229 -1.604,0.93 -0.187,0.702 0.227,1.423 0.927,1.611 C -0.906,1.118 -0.187,0.702 0,0 Z"
               style="fill:#ffffff;fill-opacity:1;stroke:#ffffff;stroke-width:0.72500002;stroke-linecap:butt;stroke-linejoin:miter;stroke-miterlimit:2.41400003;stroke-dasharray:none;stroke-opacity:1"
               id="path50" />
          </g>
          <g
             id="g52"
             transform="translate(345.025,452.4025)"
             style="fill:#ffffff;fill-opacity:1;stroke:#ffffff;stroke-opacity:1">
            <path
               d="m 0,0 c -0.187,-0.702 -0.906,-1.118 -1.604,-0.929 -0.7,0.187 -1.114,0.908 -0.927,1.61 0.187,0.701 0.906,1.118 1.604,0.929 C -0.228,1.423 0.187,0.702 0,0"
               style="fill:#ffffff;fill-opacity:1;fill-rule:nonzero;stroke:#ffffff;stroke-opacity:1"
               id="path54" />
          </g>
          <g
             id="g56"
             transform="translate(345.025,452.4025)"
             style="fill:#ffffff;fill-opacity:1;stroke:#ffffff;stroke-opacity:1">
            <path
               d="m 0,0 c -0.187,-0.702 -0.906,-1.118 -1.604,-0.929 -0.7,0.187 -1.114,0.908 -0.927,1.61 0.187,0.701 0.906,1.118 1.604,0.929 C -0.228,1.423 0.187,0.702 0,0 Z"
               style="fill:#ffffff;fill-opacity:1;stroke:#ffffff;stroke-width:0.72500002;stroke-linecap:butt;stroke-linejoin:miter;stroke-miterlimit:2.41400003;stroke-dasharray:none;stroke-opacity:1"
               id="path58" />
          </g>
          <g
             id="g60"
             transform="translate(339.4151,438.8191)"
             style="fill:#ffffff;fill-opacity:1;stroke:#ffffff;stroke-opacity:1">
            <path
               d="m 0,0 c -0.361,-0.629 -1.162,-0.844 -1.789,-0.481 -0.627,0.363 -0.842,1.167 -0.48,1.796 0.363,0.629 1.163,0.845 1.79,0.482 C 0.147,1.434 0.362,0.629 0,0"
               style="fill:#ffffff;fill-opacity:1;fill-rule:nonzero;stroke:#ffffff;stroke-opacity:1"
               id="path62" />
          </g>
          <g
             id="g64"
             transform="translate(339.4151,438.8191)"
             style="fill:#ffffff;fill-opacity:1;stroke:#ffffff;stroke-opacity:1">
            <path
               d="m 0,0 c -0.361,-0.629 -1.162,-0.844 -1.789,-0.481 -0.627,0.363 -0.842,1.167 -0.48,1.796 0.363,0.629 1.163,0.845 1.79,0.482 C 0.147,1.434 0.362,0.629 0,0 Z"
               style="fill:#ffffff;fill-opacity:1;stroke:#ffffff;stroke-width:0.72500002;stroke-linecap:butt;stroke-linejoin:miter;stroke-miterlimit:2.41400003;stroke-dasharray:none;stroke-opacity:1"
               id="path66" />
          </g>
          <g
             id="g68"
             transform="translate(318.8638,418.2047)"
             style="fill:#ffffff;fill-opacity:1;stroke:#ffffff;stroke-opacity:1">
            <path
               d="M 0,0 C -0.627,-0.363 -1.428,-0.148 -1.79,0.481 -2.152,1.11 -1.937,1.915 -1.311,2.278 -0.684,2.641 0.118,2.426 0.479,1.796 0.841,1.168 0.626,0.363 0,0"
               style="fill:#ffffff;fill-opacity:1;fill-rule:nonzero;stroke:#ffffff;stroke-opacity:1"
               id="path70" />
          </g>
          <g
             id="g72"
             transform="translate(318.8638,418.2047)"
             style="fill:#ffffff;fill-opacity:1;stroke:#ffffff;stroke-opacity:1">
            <path
               d="M 0,0 C -0.627,-0.363 -1.428,-0.148 -1.79,0.481 -2.152,1.11 -1.937,1.915 -1.311,2.278 -0.684,2.641 0.118,2.426 0.479,1.796 0.841,1.168 0.626,0.363 0,0 Z"
               style="fill:#ffffff;fill-opacity:1;stroke:#ffffff;stroke-width:0.72500002;stroke-linecap:butt;stroke-linejoin:miter;stroke-miterlimit:2.41400003;stroke-dasharray:none;stroke-opacity:1"
               id="path74" />
          </g>
          <g
             id="g76"
             transform="translate(305.3212,412.5784)"
             style="fill:#ffffff;fill-opacity:1;stroke:#ffffff;stroke-opacity:1">
            <path
               d="m 0,0 c -0.699,-0.188 -1.418,0.229 -1.604,0.93 -0.188,0.702 0.227,1.423 0.925,1.611 0.7,0.188 1.418,-0.229 1.605,-0.93 C 1.113,0.909 0.699,0.188 0,0"
               style="fill:#ffffff;fill-opacity:1;fill-rule:nonzero;stroke:#ffffff;stroke-opacity:1"
               id="path78" />
          </g>
          <g
             id="g80"
             transform="translate(305.3212,412.5784)"
             style="fill:#ffffff;fill-opacity:1;stroke:#ffffff;stroke-opacity:1">
            <path
               d="m 0,0 c -0.699,-0.188 -1.418,0.229 -1.604,0.93 -0.188,0.702 0.227,1.423 0.925,1.611 0.7,0.188 1.418,-0.229 1.605,-0.93 C 1.113,0.909 0.699,0.188 0,0 Z"
               style="fill:#ffffff;fill-opacity:1;stroke:#ffffff;stroke-width:0.72500002;stroke-linecap:butt;stroke-linejoin:miter;stroke-miterlimit:2.41400003;stroke-dasharray:none;stroke-opacity:1"
               id="path82" />
          </g>
          <g
             id="g84"
             transform="translate(276.2562,412.5784)"
             style="fill:#ffffff;fill-opacity:1;stroke:#ffffff;stroke-opacity:1">
            <path
               d="m 0,0 c -0.699,0.188 -1.114,0.909 -0.926,1.611 0.187,0.701 0.905,1.118 1.604,0.93 C 1.377,2.353 1.792,1.632 1.604,0.93 1.418,0.229 0.699,-0.188 0,0"
               style="fill:#ffffff;fill-opacity:1;fill-rule:nonzero;stroke:#ffffff;stroke-opacity:1"
               id="path86" />
          </g>
          <g
             id="g88"
             transform="translate(276.2562,412.5784)"
             style="fill:#ffffff;fill-opacity:1;stroke:#ffffff;stroke-opacity:1">
            <path
               d="m 0,0 c -0.699,0.188 -1.114,0.909 -0.926,1.611 0.187,0.701 0.905,1.118 1.604,0.93 C 1.377,2.353 1.792,1.632 1.604,0.93 1.418,0.229 0.699,-0.188 0,0 Z"
               style="fill:#ffffff;fill-opacity:1;stroke:#ffffff;stroke-width:0.72500002;stroke-linecap:butt;stroke-linejoin:miter;stroke-miterlimit:2.41400003;stroke-dasharray:none;stroke-opacity:1"
               id="path90" />
          </g>
          <g
             id="g92"
             transform="translate(262.7136,418.2047)"
             style="fill:#ffffff;fill-opacity:1;stroke:#ffffff;stroke-opacity:1">
            <path
               d="M 0,0 C -0.626,0.363 -0.84,1.168 -0.479,1.796 -0.117,2.426 0.685,2.641 1.31,2.278 1.937,1.915 2.152,1.11 1.79,0.481 1.428,-0.148 0.627,-0.363 0,0"
               style="fill:#ffffff;fill-opacity:1;fill-rule:nonzero;stroke:#ffffff;stroke-opacity:1"
               id="path94" />
          </g>
          <g
             id="g96"
             transform="translate(262.7136,418.2047)"
             style="fill:#ffffff;fill-opacity:1;stroke:#ffffff;stroke-opacity:1">
            <path
               d="M 0,0 C -0.626,0.363 -0.84,1.168 -0.479,1.796 -0.117,2.426 0.685,2.641 1.31,2.278 1.937,1.915 2.152,1.11 1.79,0.481 1.428,-0.148 0.627,-0.363 0,0 Z"
               style="fill:#ffffff;fill-opacity:1;stroke:#ffffff;stroke-width:0.72500002;stroke-linecap:butt;stroke-linejoin:miter;stroke-miterlimit:2.41400003;stroke-dasharray:none;stroke-opacity:1"
               id="path98" />
          </g>
          <g
             id="g100"
             transform="translate(242.1622,438.8195)"
             style="fill:#ffffff;fill-opacity:1;stroke:#ffffff;stroke-opacity:1">
            <path
               d="M 0,0 C -0.362,0.629 -0.147,1.433 0.48,1.797 1.106,2.16 1.907,1.944 2.269,1.315 2.631,0.686 2.416,-0.118 1.79,-0.481 1.163,-0.845 0.361,-0.629 0,0"
               style="fill:#ffffff;fill-opacity:1;fill-rule:nonzero;stroke:#ffffff;stroke-opacity:1"
               id="path102" />
          </g>
          <g
             id="g104"
             transform="translate(242.1622,438.8195)"
             style="fill:#ffffff;fill-opacity:1;stroke:#ffffff;stroke-opacity:1">
            <path
               d="M 0,0 C -0.362,0.629 -0.147,1.433 0.48,1.797 1.106,2.16 1.907,1.944 2.269,1.315 2.631,0.686 2.416,-0.118 1.79,-0.481 1.163,-0.845 0.361,-0.629 0,0 Z"
               style="fill:#ffffff;fill-opacity:1;stroke:#ffffff;stroke-width:0.72500002;stroke-linecap:butt;stroke-linejoin:miter;stroke-miterlimit:2.41400003;stroke-dasharray:none;stroke-opacity:1"
               id="path106" />
          </g>
          <g
             id="g108"
             transform="translate(236.5531,452.4025)"
             style="fill:#ffffff;fill-opacity:1;stroke:#ffffff;stroke-opacity:1">
            <path
               d="M 0,0 C -0.188,0.702 0.227,1.423 0.926,1.61 1.625,1.799 2.344,1.382 2.531,0.681 2.718,-0.021 2.303,-0.742 1.604,-0.929 0.905,-1.118 0.187,-0.702 0,0"
               style="fill:#ffffff;fill-opacity:1;fill-rule:nonzero;stroke:#ffffff;stroke-opacity:1"
               id="path110" />
          </g>
          <g
             id="g112"
             transform="translate(236.5531,452.4025)"
             style="fill:#ffffff;fill-opacity:1;stroke:#ffffff;stroke-opacity:1">
            <path
               d="M 0,0 C -0.188,0.702 0.227,1.423 0.926,1.61 1.625,1.799 2.344,1.382 2.531,0.681 2.718,-0.021 2.303,-0.742 1.604,-0.929 0.905,-1.118 0.187,-0.702 0,0 Z"
               style="fill:#ffffff;fill-opacity:1;stroke:#ffffff;stroke-width:0.72500002;stroke-linecap:butt;stroke-linejoin:miter;stroke-miterlimit:2.41400003;stroke-dasharray:none;stroke-opacity:1"
               id="path114" />
          </g>
          <g
             id="g116"
             transform="translate(236.5531,481.556)"
             style="fill:#ffffff;fill-opacity:1;stroke:#ffffff;stroke-opacity:1">
            <path
               d="M 0,0 C 0.187,0.702 0.906,1.118 1.604,0.93 2.303,0.742 2.718,0.021 2.531,-0.681 2.344,-1.382 1.625,-1.799 0.926,-1.611 0.227,-1.422 -0.188,-0.702 0,0"
               style="fill:#ffffff;fill-opacity:1;fill-rule:nonzero;stroke:#ffffff;stroke-opacity:1"
               id="path118" />
          </g>
          <g
             id="g120"
             transform="translate(236.5531,481.556)"
             style="fill:#ffffff;fill-opacity:1;stroke:#ffffff;stroke-opacity:1">
            <path
               d="M 0,0 C 0.187,0.702 0.906,1.118 1.604,0.93 2.303,0.742 2.718,0.021 2.531,-0.681 2.344,-1.382 1.625,-1.799 0.926,-1.611 0.227,-1.422 -0.188,-0.702 0,0 Z"
               style="fill:#ffffff;fill-opacity:1;stroke:#ffffff;stroke-width:0.72500002;stroke-linecap:butt;stroke-linejoin:miter;stroke-miterlimit:2.41400003;stroke-dasharray:none;stroke-opacity:1"
               id="path122" />
          </g>
          <g
             id="g124"
             transform="translate(242.1622,495.1393)"
             style="fill:#ffffff;fill-opacity:1;stroke:#ffffff;stroke-opacity:1">
            <path
               d="M 0,0 C 0.361,0.629 1.163,0.844 1.79,0.481 2.416,0.118 2.631,-0.686 2.269,-1.315 1.907,-1.944 1.106,-2.16 0.48,-1.797 -0.147,-1.433 -0.362,-0.629 0,0"
               style="fill:#ffffff;fill-opacity:1;fill-rule:nonzero;stroke:#ffffff;stroke-opacity:1"
               id="path126" />
          </g>
          <g
             id="g128"
             transform="translate(242.1622,495.1393)"
             style="fill:#ffffff;fill-opacity:1;stroke:#ffffff;stroke-opacity:1">
            <path
               d="M 0,0 C 0.361,0.629 1.163,0.844 1.79,0.481 2.416,0.118 2.631,-0.686 2.269,-1.315 1.907,-1.944 1.106,-2.16 0.48,-1.797 -0.147,-1.433 -0.362,-0.629 0,0 Z"
               style="fill:#ffffff;fill-opacity:1;stroke:#ffffff;stroke-width:0.72500002;stroke-linecap:butt;stroke-linejoin:miter;stroke-miterlimit:2.41400003;stroke-dasharray:none;stroke-opacity:1"
               id="path130" />
          </g>
          <g
             id="g132"
             transform="translate(262.7136,515.7538)"
             style="fill:#ffffff;fill-opacity:1;stroke:#ffffff;stroke-opacity:1">
            <path
               d="M 0,0 C 0.627,0.363 1.428,0.147 1.79,-0.481 2.152,-1.11 1.937,-1.915 1.31,-2.278 0.685,-2.641 -0.117,-2.426 -0.479,-1.796 -0.84,-1.168 -0.626,-0.363 0,0"
               style="fill:#ffffff;fill-opacity:1;fill-rule:nonzero;stroke:#ffffff;stroke-opacity:1"
               id="path134" />
          </g>
          <g
             id="g136"
             transform="translate(262.7136,515.7538)"
             style="fill:#ffffff;fill-opacity:1;stroke:#ffffff;stroke-opacity:1">
            <path
               d="M 0,0 C 0.627,0.363 1.428,0.147 1.79,-0.481 2.152,-1.11 1.937,-1.915 1.31,-2.278 0.685,-2.641 -0.117,-2.426 -0.479,-1.796 -0.84,-1.168 -0.626,-0.363 0,0 Z"
               style="fill:#ffffff;fill-opacity:1;stroke:#ffffff;stroke-width:0.72500002;stroke-linecap:butt;stroke-linejoin:miter;stroke-miterlimit:2.41400003;stroke-dasharray:none;stroke-opacity:1"
               id="path138" />
          </g>
          <g
             id="g140"
             transform="translate(276.2562,521.3801)"
             style="fill:#ffffff;fill-opacity:1;stroke:#ffffff;stroke-opacity:1">
            <path
               d="M 0,0 C 0.699,0.188 1.418,-0.229 1.604,-0.93 1.792,-1.631 1.377,-2.353 0.678,-2.541 -0.021,-2.729 -0.739,-2.312 -0.926,-1.611 -1.114,-0.909 -0.699,-0.188 0,0"
               style="fill:#ffffff;fill-opacity:1;fill-rule:nonzero;stroke:#ffffff;stroke-opacity:1"
               id="path142" />
          </g>
          <g
             id="g144"
             transform="translate(276.2562,521.3801)"
             style="fill:#ffffff;fill-opacity:1;stroke:#ffffff;stroke-opacity:1">
            <path
               d="M 0,0 C 0.699,0.188 1.418,-0.229 1.604,-0.93 1.792,-1.631 1.377,-2.353 0.678,-2.541 -0.021,-2.729 -0.739,-2.312 -0.926,-1.611 -1.114,-0.909 -0.699,-0.188 0,0 Z"
               style="fill:#ffffff;fill-opacity:1;stroke:#ffffff;stroke-width:0.72500002;stroke-linecap:butt;stroke-linejoin:miter;stroke-miterlimit:2.41400003;stroke-dasharray:none;stroke-opacity:1"
               id="path146" />
          </g>
          <g
             id="g148"
             transform="translate(347.5652,508.3593)"
             style="fill:#ffffff;fill-opacity:1;stroke:#ffffff;stroke-opacity:1">
            <path
               d="m 0,0 c 8.732,-11.72 13.901,-26.238 13.901,-41.958 v -0.001 -10e-4 c 0,-15.882 -5.275,-30.536 -14.171,-42.318 l -0.091,0.083 c 8.876,11.76 14.139,26.386 14.139,42.235 v 10e-4 0.001 c 0,15.687 -5.156,30.176 -13.87,41.874 C -0.061,-0.056 -0.031,-0.028 0,0 Z m -15.143,-98.891 c -11.667,-8.489 -26.04,-13.499 -41.583,-13.501 h -0.003 c -15.934,0 -30.636,5.266 -42.454,14.144 0.027,0.032 0.053,0.064 0.079,0.095 11.797,-8.861 26.472,-14.116 42.375,-14.116 v 0.001 h 0.003 v -0.001 c 15.512,0 29.857,5 41.501,13.47 0.026,-0.031 0.054,-0.061 0.082,-0.092 z m -98.639,15.411 c -8.536,11.642 -13.576,25.995 -13.576,41.519 v 0.002 c 0,15.671 5.135,30.147 13.819,41.848 l 0.096,-0.078 c -8.667,-11.679 -13.792,-26.129 -13.793,-41.77 h 0.001 v -0.002 h -0.001 c 0.001,-15.495 5.031,-29.821 13.551,-41.443 -0.032,-0.026 -0.065,-0.051 -0.097,-0.076 z"
               style="fill:#ffffff;fill-opacity:1;stroke:#ffffff;stroke-width:0.5;stroke-linecap:butt;stroke-linejoin:miter;stroke-miterlimit:22.9260006;stroke-dasharray:none;stroke-opacity:1"
               id="path150" />
          </g>
          <g
             id="g152"
             transform="translate(290.859,400.9577)"
             style="fill:#ffffff;fill-opacity:1;stroke:#ffffff;stroke-opacity:1">
            <path
               d="M 0,0 C -1.966,0 -3.21,0.963 -3.644,1.399 L -4.019,1.023 C -3.509,0.497 -2.161,-0.54 0,-0.54 c 2.146,0 4.019,1.202 4.019,2.827 0,3.446 -6.975,2.619 -6.975,5.237 0,0.933 1.215,1.881 2.956,1.881 1.695,0 2.776,-0.797 3.136,-1.128 L 3.481,8.683 C 3.046,9.074 1.861,9.945 0,9.945 c -1.816,0 -3.479,-0.991 -3.479,-2.421 0,-3.175 6.96,-2.302 6.96,-5.237 C 3.481,1.099 1.996,0 0,0"
               style="fill:#ffffff;fill-opacity:1;fill-rule:nonzero;stroke:#ffffff;stroke-opacity:1"
               id="path154" />
          </g>
        </g>
      </g>
      <g
         id="g156"
         transform="translate(225.06532,472.74023)"
         style="fill:#ffffff;fill-opacity:1;stroke:#ffffff;stroke-opacity:1">
        <path
           d="M 0,0 3.795,-10.244 H 4.2 l 2.744,7.085 2.744,-7.085 h 0.405 L 13.903,0 13.393,0.196 9.898,-9.251 7.213,-2.377 v 1.399 H 6.675 V -2.377 L 4.005,-9.251 0.51,0.196 Z m 123.898,-0.434 h 5.895 v 0.539 h -6.418 v -10.214 h 6.958 v 0.54 h -6.435 v 4.29 h 3.75 v 0.54 h -3.75 z"
           style="fill:#ffffff;fill-opacity:1;fill-rule:nonzero;stroke:#ffffff;stroke-opacity:1"
           id="path158" />
      </g>
      <g
         id="g160"
         transform="translate(-8.9706375e-6,-8.4214149e-6)"
         style="fill:none;fill-opacity:1;stroke:#ffffff;stroke-opacity:1">
        <g
           id="g162"
           clip-path="url(#clipPath166)"
           style="fill:none;fill-opacity:1;stroke:#ffffff;stroke-opacity:1">
          <g
             id="g168"
             transform="translate(315.936,464.328)"
             style="fill:none;fill-opacity:1;stroke:#ffffff;stroke-opacity:1">
            <path
               d="m 0,0 c -1.027,-12.064 -10.607,-21.762 -22.612,-22.866 m 0.562,49.852 C -10.563,25.667 -1.479,16.7 -0.144,5.184 m -49.68,-0.72 c 1.12,11.408 9.908,20.682 21.098,22.397 m 0.718,-49.685 c -11.507,1.474 -20.68,10.858 -21.786,22.51"
               style="fill:none;fill-opacity:1;stroke:#ffffff;stroke-width:1;stroke-linecap:butt;stroke-linejoin:miter;stroke-miterlimit:2.41400003;stroke-dasharray:none;stroke-opacity:1"
               id="path170" />
          </g>
          <g
             id="g172"
             transform="translate(251.8765,438.732)"
             style="fill:none;fill-opacity:1;stroke:#ffffff;stroke-opacity:1">
            <path
               d="m 0,0 c -5.494,7.799 -8.729,17.313 -8.75,27.586 -0.02,10.348 3.226,19.939 8.763,27.792 M 87.021,27.774 C 87.041,17.424 83.794,7.831 78.254,-0.024 M 78.099,55.603 C 83.526,47.999 86.797,38.74 87.01,28.723 M 40.372,75.708 C 50.375,75.426 59.748,72.047 67.313,66.516 M 10.815,66.41 c 7.358,5.423 16.237,8.768 25.957,9.226"
               style="fill:none;fill-opacity:1;stroke:#ffffff;stroke-width:0.75;stroke-linecap:butt;stroke-linejoin:miter;stroke-miterlimit:2.41400003;stroke-dasharray:none;stroke-opacity:1"
               id="path174" />
          </g>
        </g>
      </g>
      <g
         id="g176"
         transform="translate(293.40004,441.71996)"
         style="fill:#ffffff;fill-opacity:1;stroke:#ffffff;stroke-opacity:1">
        <path
           d="m 0,0 1.11,13.72 0.077,0.061"
           style="fill:#ffffff;fill-opacity:1;fill-rule:nonzero;stroke:#ffffff;stroke-opacity:1"
           id="path178" />
      </g>
      <g
         id="g180"
         transform="translate(293.40004,441.71996)"
         style="fill:#ffffff;fill-opacity:1;stroke:#ffffff;stroke-opacity:1">
        <path
           d="m 0,0 1.11,13.72 0.077,0.061"
           style="fill:#ffffff;fill-opacity:1;stroke:#ffffff;stroke-width:0.148;stroke-linecap:butt;stroke-linejoin:miter;stroke-miterlimit:2.41400003;stroke-dasharray:none;stroke-opacity:1"
           id="path182" />
      </g>
      <g
         id="g184"
         transform="translate(290.7687,412.49262)"
         style="fill:#ffffff;fill-opacity:1;stroke:#ffffff;stroke-opacity:1">
        <path
           d="m 0,0 0.007,54.355 -0.105,0.041 -5.479,-4.433 -4.896,0.36 L -46.255,7.717 -4.112,43.274 0,0 2.631,29.299"
           style="fill:#ffffff;fill-opacity:1;fill-rule:nonzero;stroke:#ffffff;stroke-opacity:1"
           id="path186" />
      </g>
      <g
         id="g188"
         transform="translate(290.7687,412.49262)"
         style="fill:#ffffff;fill-opacity:1;stroke:#ffffff;stroke-opacity:1">
        <path
           d="m 0,0 0.007,54.355 -0.105,0.041 -5.479,-4.433 -4.896,0.36 L -46.255,7.717 -4.112,43.274 0,0 2.631,29.299"
           style="fill:#ffffff;fill-opacity:1;stroke:#ffffff;stroke-width:0.148;stroke-linecap:butt;stroke-linejoin:miter;stroke-miterlimit:2.41400003;stroke-dasharray:none;stroke-opacity:1"
           id="path190" />
      </g>
      <g
         id="g192"
         transform="translate(286.24335,476.92557)"
         style="fill:#ffffff;fill-opacity:1;stroke:#ffffff;stroke-opacity:1">
        <path
           d="M 0,0 4.178,66.109 4.12,-10.444 4.224,-10.475 9.749,-6.118 15.077,-6.262 50.449,35.812 8.272,0.218 4.178,66.109"
           style="fill:#ffffff;fill-opacity:1;fill-rule:nonzero;stroke:#ffffff;stroke-opacity:1"
           id="path194" />
      </g>
      <g
         id="g196"
         transform="translate(286.24335,476.92557)"
         style="fill:#ffffff;fill-opacity:1;stroke:#ffffff;stroke-opacity:1">
        <path
           d="M 0,0 4.178,66.109 4.12,-10.444 4.224,-10.475 9.749,-6.118 15.077,-6.262 50.449,35.812 8.272,0.218 4.178,66.109"
           style="fill:#ffffff;fill-opacity:1;stroke:#ffffff;stroke-width:0.148;stroke-linecap:butt;stroke-linejoin:miter;stroke-miterlimit:2.41400003;stroke-dasharray:none;stroke-opacity:1"
           id="path198" />
      </g>
      <g
         id="g200"
         transform="translate(280.82126,462.77048)"
         style="fill:#ffffff;fill-opacity:1;stroke:#ffffff;stroke-opacity:1">
        <path
           d="M 0,0 -41.156,3.365 10.052,3.43 5.307,9.549 5.451,14.661 -36.663,49.677 -1.35,7.372 -41.156,3.365"
           style="fill:#ffffff;fill-opacity:1;fill-rule:nonzero;stroke:#ffffff;stroke-opacity:1"
           id="path202" />
      </g>
      <g
         id="g204"
         transform="translate(280.82126,462.77048)"
         style="fill:#ffffff;fill-opacity:1;stroke:#ffffff;stroke-opacity:1">
        <path
           d="M 0,0 -41.156,3.365 10.052,3.43 5.307,9.549 5.451,14.661 -36.663,49.677 -1.35,7.372 -41.156,3.365"
           style="fill:#ffffff;fill-opacity:1;stroke:#ffffff;stroke-width:0.148;stroke-linecap:butt;stroke-linejoin:miter;stroke-miterlimit:2.41400003;stroke-dasharray:none;stroke-opacity:1"
           id="path206" />
      </g>
      <g
         id="g208"
         transform="translate(300.36471,470.72691)"
         style="fill:#ffffff;fill-opacity:1;stroke:#ffffff;stroke-opacity:1">
        <path
           d="m 0,0 43.272,-3.443 v -0.188 l -53.475,-0.266 4.678,-6.246 -0.36,-5.4 41.938,-35.288 -36.212,42.945 43.431,4.255"
           style="fill:#ffffff;fill-opacity:1;fill-rule:nonzero;stroke:#ffffff;stroke-opacity:1"
           id="path210" />
      </g>
      <g
         id="g212"
         transform="translate(300.36471,470.72691)"
         style="fill:#ffffff;fill-opacity:1;stroke:#ffffff;stroke-opacity:1">
        <path
           d="m 0,0 43.272,-3.443 v -0.188 l -53.475,-0.266 4.678,-6.246 -0.36,-5.4 41.938,-35.288 -36.212,42.945 43.431,4.255"
           style="fill:#ffffff;fill-opacity:1;stroke:#ffffff;stroke-width:0.148;stroke-linecap:butt;stroke-linejoin:miter;stroke-miterlimit:2.41400003;stroke-dasharray:none;stroke-opacity:1"
           id="path214" />
      </g>
      <g
         id="g224"
         transform="translate(290.2265,418.3886)"
         style="fill:none;fill-opacity:1;stroke:#ffffff;stroke-opacity:1">
        <path
           d="M 0,0 C -10.472,0.169 -20.13,3.712 -27.94,9.595"
           style="fill:none;fill-opacity:1;stroke:#ffffff;stroke-width:1;stroke-linecap:butt;stroke-linejoin:miter;stroke-miterlimit:2.41400003;stroke-dasharray:none;stroke-opacity:1"
           id="path226" />
      </g>
      <g
         id="g228"
         transform="translate(83.016,585.525)"
         style="fill:#ffffff;fill-opacity:1;stroke:#ffffff;stroke-opacity:1">
        <path
           d="m 0,0 v -48.65 h 2.546 v 16.769 h 14.241 c 10.87,0 18.576,4.692 18.576,16.354 C 35.363,-7.453 31.029,0 18.507,0 Z m 2.546,-29.535 v 27.12 h 15.755 c 10.664,0 14.379,-6.28 14.379,-13.181 0,-9.868 -6.536,-13.939 -16.03,-13.939 z M 47.54,-46.304 V 0 h -2.546 v -48.65 h 31.098 v 2.346 z m 76.16,-2.346 h 2.683 L 104.574,0 h -1.926 L 80.769,-48.65 h 2.752 l 6.192,14.077 h 27.727 z m -20.158,45.545 13.003,-29.259 H 90.676 Z M 171.859,0 V -43.751 L 136.359,0 h -1.72 v -48.65 h 2.545 V -4.9 l 35.57,-43.75 h 1.651 V 0 Z m 47.815,0 V -30.639 L 190.779,0 h -4.816 v -48.65 h 9.838 v 30.639 l 28.965,-30.639 h 4.816 V 0 Z m 43.757,0.483 c -14.242,0 -25.8,-11.11 -25.8,-24.843 0,-13.732 11.558,-24.842 25.8,-24.842 14.31,0 25.8,11.11 25.8,24.842 0,13.733 -11.49,24.843 -25.8,24.843 m 0,-40.438 c -8.669,0 -15.686,6.97 -15.686,15.595 0,8.557 7.017,15.596 15.686,15.596 8.669,0 15.755,-7.039 15.755,-15.596 0,-8.625 -7.086,-15.595 -15.755,-15.595 m 64.052,-8.695 h 11.765 l -11.283,14.491 c 6.398,2.761 9.838,8.281 9.838,16.631 0,9.109 -4.816,17.528 -18.989,17.528 h -21.396 v -48.65 h 9.838 v 12.49 h 9.013 c 0.619,0 1.307,0 1.857,0.069 z m -20.227,40.093 h 9.976 c 7.637,0 10.251,-4.692 10.251,-9.73 0,-5.728 -3.715,-9.73 -11.558,-9.73 h -8.669 z M 383.967,0 H 343.168 V -8.557 H 358.58 V -48.65 h 9.907 v 40.093 h 15.48 z m 39.146,0 v -23.669 h -22.36 V 0 h -9.563 v -48.65 h 9.563 v 16.493 h 22.36 V -48.65 h 9.632 V 0 Z"
           style="fill:#ffffff;fill-opacity:1;fill-rule:nonzero;stroke:#ffffff;stroke-opacity:1"
           id="path230" />
      </g>
      <g
         id="g232"
         transform="translate(319.7245,427.9731)"
         style="fill:none;fill-opacity:1;stroke:#ffffff;stroke-opacity:1">
        <path
           d="M 0,0 C -7.975,-6.004 -17.748,-9.56 -28.485,-9.581"
           style="fill:none;fill-opacity:1;stroke:#ffffff;stroke-width:1;stroke-linecap:butt;stroke-linejoin:miter;stroke-miterlimit:2.41400003;stroke-dasharray:none;stroke-opacity:1"
           id="path234" />
      </g>
      <g
         id="g236"
         transform="translate(186.6408,357.4348)"
         style="fill:#ffffff;fill-opacity:1;stroke:#ffffff;stroke-opacity:1">
        <path
           d="M 0,0 V 0.696 C -1.56,0.864 -1.896,1.104 -2.64,3.168 -4.176,7.32 -5.784,11.832 -7.272,15.96 l -0.84,-0.24 -4.944,-12.528 c -0.84,-2.112 -1.152,-2.28 -2.712,-2.496 V 0 h 5.256 v 0.696 c -1.8,0.192 -1.968,0.432 -1.488,1.896 0.312,0.984 0.648,1.968 1.008,3 h 5.04 C -5.448,4.2 -4.992,2.976 -4.704,2.064 -4.392,1.104 -4.584,0.888 -6.072,0.696 V 0 Z m -6.312,6.648 h -4.296 c 0.72,1.944 1.44,3.96 2.184,5.952 h 0.072 z M 16.896,0.456 C 16.368,0.6 15.84,0.888 15.216,1.56 c -0.552,0.6 -1.056,1.248 -1.92,2.52 -0.72,1.08 -1.704,2.688 -2.112,3.456 1.752,0.768 3.048,2.016 3.048,4.08 0,1.464 -0.624,2.52 -1.608,3.144 -0.912,0.624 -2.088,0.84 -3.912,0.84 H 2.616 V 14.904 C 4.464,14.736 4.68,14.616 4.68,12.6 V 3.024 C 4.68,1.008 4.464,0.84 2.52,0.696 V 0 H 9 V 0.696 C 7.104,0.84 6.888,1.008 6.888,3.024 v 3.768 h 0.696 c 1.152,0 1.56,-0.288 1.992,-0.984 0.696,-1.176 1.536,-2.64 2.328,-3.768 1.08,-1.56 2.04,-2.112 4.08,-2.208 0.288,-0.024 0.552,-0.024 0.816,-0.024 z M 6.888,7.608 v 5.904 c 0,0.624 0.072,0.888 0.24,1.032 0.192,0.144 0.576,0.24 1.272,0.24 1.728,0 3.384,-0.96 3.384,-3.552 C 11.784,9.96 11.4,9 10.512,8.28 9.912,7.8 9.12,7.608 7.944,7.608 Z m 25.584,-3.36 c -1.224,-2.376 -2.52,-3.696 -4.896,-3.696 -3.6,0 -6.168,3.048 -6.168,7.512 0,3.624 2.088,6.984 6,6.984 2.472,0 3.984,-0.984 4.632,-3.576 l 0.744,0.168 c -0.144,1.32 -0.312,2.328 -0.504,3.672 -0.648,0.12 -2.304,0.648 -4.248,0.648 -5.448,0 -9.312,-3.336 -9.312,-8.376 0,-3.792 2.64,-7.944 8.688,-7.944 1.704,0 3.744,0.48 4.416,0.648 0.432,0.792 1.032,2.592 1.368,3.696 z M 52.464,15.6 h -6.432 v -0.696 c 1.848,-0.168 2.04,-0.312 2.04,-2.304 V 8.784 H 40.2 V 12.6 c 0,2.016 0.192,2.136 1.992,2.304 V 15.6 h -6.408 v -0.696 c 1.968,-0.168 2.16,-0.288 2.16,-2.304 V 3 c 0,-2.016 -0.192,-2.136 -2.088,-2.304 V 0 h 6.456 V 0.696 C 40.392,0.864 40.2,0.984 40.2,3 v 4.728 h 7.872 V 3 c 0,-2.016 -0.192,-2.136 -2.208,-2.304 V 0 h 6.6 V 0.696 C 50.52,0.864 50.328,0.984 50.328,3 v 9.6 c 0,2.016 0.192,2.136 2.136,2.304 z M 61.967,0 v 0.696 c -1.92,0.144 -2.136,0.288 -2.136,2.328 v 9.528 c 0,2.04 0.216,2.184 2.136,2.352 V 15.6 h -6.504 v -0.696 c 1.92,-0.168 2.136,-0.312 2.136,-2.352 V 3.024 c 0,-2.04 -0.216,-2.184 -2.136,-2.328 V 0 Z m 16.416,11.88 c -0.12,1.416 -0.24,3.24 -0.24,4.32 h -0.528 c -0.36,-0.456 -0.576,-0.6 -1.224,-0.6 h -9.528 c -0.672,0 -0.984,0.048 -1.32,0.6 h -0.504 c -0.048,-1.296 -0.192,-2.904 -0.288,-4.392 h 0.744 c 0.264,1.08 0.504,1.776 0.792,2.184 0.312,0.528 0.792,0.744 2.784,0.744 h 1.368 V 3 c 0,-1.92 -0.192,-2.16 -2.352,-2.304 V 0 h 7.056 V 0.696 C 72.887,0.84 72.695,1.08 72.695,3 v 11.736 h 1.584 c 1.752,0 2.16,-0.192 2.568,-0.72 0.312,-0.408 0.552,-1.032 0.816,-2.208 z m 14.28,-7.944 c -0.36,-0.96 -0.792,-1.776 -1.224,-2.28 -0.528,-0.6 -1.224,-0.792 -2.952,-0.792 -1.152,0 -1.992,0 -2.448,0.288 -0.432,0.288 -0.576,0.84 -0.576,1.968 v 4.44 h 2.16 c 2.088,0 2.28,-0.144 2.592,-1.848 h 0.72 v 4.632 h -0.72 c -0.288,-1.608 -0.456,-1.8 -2.592,-1.8 h -2.16 v 5.4 c 0,0.72 0.072,0.792 0.84,0.792 h 1.704 c 1.656,0 2.304,-0.168 2.664,-0.696 0.312,-0.48 0.576,-1.056 0.792,-2.04 l 0.744,0.12 c -0.096,1.272 -0.216,2.904 -0.216,3.48 h -10.8 v -0.696 c 1.824,-0.168 2.04,-0.264 2.04,-2.4 v -9.48 c 0,-1.968 -0.216,-2.16 -2.376,-2.328 V 0 h 11.712 c 0.192,0.744 0.696,2.976 0.816,3.816 z m 17.184,0.312 c -1.224,-2.376 -2.52,-3.696 -4.896,-3.696 -3.6,0 -6.168,3.048 -6.168,7.512 0,3.624 2.088,6.984 6,6.984 2.472,0 3.984,-0.984 4.632,-3.576 l 0.744,0.168 c -0.144,1.32 -0.312,2.328 -0.504,3.672 -0.648,0.12 -2.304,0.648 -4.248,0.648 -5.448,0 -9.312,-3.336 -9.312,-8.376 0,-3.792 2.64,-7.944 8.688,-7.944 1.704,0 3.744,0.48 4.416,0.648 0.432,0.792 1.032,2.592 1.368,3.696 z m 16.727,7.632 c -0.12,1.416 -0.24,3.24 -0.24,4.32 h -0.528 c -0.36,-0.456 -0.576,-0.6 -1.224,-0.6 h -9.528 c -0.672,0 -0.984,0.048 -1.32,0.6 h -0.504 c -0.048,-1.296 -0.192,-2.904 -0.288,-4.392 h 0.744 c 0.264,1.08 0.504,1.776 0.792,2.184 0.312,0.528 0.792,0.744 2.784,0.744 h 1.368 V 3 c 0,-1.92 -0.192,-2.16 -2.352,-2.304 V 0 h 7.056 V 0.696 C 121.078,0.84 120.886,1.08 120.886,3 v 11.736 h 1.584 c 1.752,0 2.16,-0.192 2.568,-0.72 0.312,-0.408 0.552,-1.032 0.816,-2.208 z m 19.008,3.72 h -5.76 v -0.696 c 1.68,-0.12 2.184,-0.456 2.328,-1.368 0.096,-0.744 0.168,-1.728 0.168,-3.84 V 7.752 c 0,-3.984 -1.104,-6.744 -4.44,-6.744 -2.904,0 -4.392,2.184 -4.392,6.024 v 5.4 c 0,2.184 0.192,2.328 2.04,2.472 V 15.6 h -6.384 v -0.696 c 1.872,-0.192 2.088,-0.288 2.088,-2.472 V 6.504 c 0,-2.808 0.672,-4.608 2.088,-5.688 1.08,-0.84 2.472,-1.176 3.912,-1.176 1.608,0 3.216,0.528 4.32,1.68 1.368,1.44 1.8,3.504 1.8,6.264 v 2.112 c 0,2.112 0.072,3.12 0.144,3.792 0.12,0.96 0.672,1.296 2.088,1.416 z M 162.478,0.456 c -0.528,0.144 -1.056,0.432 -1.68,1.104 -0.552,0.6 -1.056,1.248 -1.92,2.52 -0.72,1.08 -1.704,2.688 -2.112,3.456 1.752,0.768 3.048,2.016 3.048,4.08 0,1.464 -0.624,2.52 -1.608,3.144 -0.912,0.624 -2.088,0.84 -3.912,0.84 h -6.096 v -0.696 c 1.848,-0.168 2.064,-0.288 2.064,-2.304 V 3.024 c 0,-2.016 -0.216,-2.184 -2.16,-2.328 V 0 h 6.48 v 0.696 c -1.896,0.144 -2.112,0.312 -2.112,2.328 v 3.768 h 0.696 c 1.152,0 1.56,-0.288 1.992,-0.984 0.696,-1.176 1.536,-2.64 2.328,-3.768 1.08,-1.56 2.04,-2.112 4.08,-2.208 0.288,-0.024 0.552,-0.024 0.816,-0.024 z M 152.47,7.608 v 5.904 c 0,0.624 0.072,0.888 0.24,1.032 0.192,0.144 0.576,0.24 1.272,0.24 1.728,0 3.384,-0.96 3.384,-3.552 0,-1.272 -0.384,-2.232 -1.272,-2.952 -0.6,-0.48 -1.392,-0.672 -2.568,-0.672 z M 179.829,0 v 0.696 c -1.56,0.168 -1.896,0.408 -2.64,2.472 -1.536,4.152 -3.144,8.664 -4.632,12.792 l -0.84,-0.24 -4.944,-12.528 c -0.84,-2.112 -1.152,-2.28 -2.712,-2.496 V 0 h 5.256 v 0.696 c -1.8,0.192 -1.968,0.432 -1.488,1.896 0.312,0.984 0.648,1.968 1.008,3 h 5.04 c 0.504,-1.392 0.96,-2.616 1.248,-3.528 0.312,-0.96 0.12,-1.176 -1.368,-1.368 V 0 Z m -6.312,6.648 h -4.296 c 0.72,1.944 1.44,3.96 2.184,5.952 h 0.072 z m 19.896,-2.664 c -0.384,-1.128 -0.816,-1.896 -1.248,-2.376 -0.552,-0.624 -1.368,-0.744 -2.64,-0.744 -0.96,0 -1.752,0.024 -2.208,0.288 -0.456,0.24 -0.576,0.696 -0.576,1.968 v 9.456 c 0,2.064 0.24,2.184 2.112,2.328 V 15.6 h -6.456 v -0.696 c 1.944,-0.168 2.112,-0.288 2.112,-2.328 V 3.048 c 0,-2.04 -0.216,-2.208 -2.232,-2.352 V 0 h 11.016 c 0.216,0.72 0.72,3.024 0.864,3.816 z m 23.615,0.264 c -1.224,-2.376 -2.52,-3.696 -4.896,-3.696 -3.6,0 -6.168,3.048 -6.168,7.512 0,3.624 2.088,6.984 6,6.984 2.472,0 3.984,-0.984 4.632,-3.576 l 0.744,0.168 c -0.144,1.32 -0.312,2.328 -0.504,3.672 -0.648,0.12 -2.304,0.648 -4.248,0.648 -5.448,0 -9.312,-3.336 -9.312,-8.376 0,-3.792 2.64,-7.944 8.688,-7.944 1.704,0 3.744,0.48 4.416,0.648 0.432,0.792 1.032,2.592 1.368,3.696 z m 11.784,11.712 c -5.112,0 -8.136,-4.032 -8.136,-8.304 0,-4.608 3.456,-8.016 7.872,-8.016 4.416,0 8.064,3.168 8.064,8.352 0,4.8 -3.648,7.968 -7.8,7.968 m -0.48,-0.888 c 3.096,0 5.592,-2.712 5.592,-7.728 0,-4.584 -2.28,-6.816 -4.872,-6.816 -3.336,0 -5.688,3.336 -5.688,7.752 0,4.44 2.352,6.792 4.968,6.792 m 12.36,-15.36 c 0.816,0 1.416,0.576 1.416,1.464 0,0.84 -0.6,1.44 -1.416,1.44 -0.816,0 -1.416,-0.6 -1.416,-1.44 0,-0.888 0.6,-1.464 1.416,-1.464"
           style="fill:#ffffff;fill-opacity:1;fill-rule:nonzero;stroke:#ffffff;stroke-opacity:1"
           id="path238" />
      </g>
    </g>
  </g>
</svg>
